<svg xmlns="http://www.w3.org/2000/svg" width="48" height="48" viewBox="0 0 48 48">
  <circle cx="24" cy="24" r="22" fill="#fff" stroke="#c0c0c0" stroke-width="1"/>
  <path d="M8 10 C16 18, 16 30, 8 38" fill="none" stroke="#d92d2d" stroke-width="1.5"/>
  <path d="M40 10 C32 18, 32 30, 40 38" fill="none" stroke="#d92d2d" stroke-width="1.5"/>
  <g stroke="#d92d2d" stroke-width="1.2">
    <line x1="6.5" y1="12.5" x2="10.5" y2="10.5"/>
    <line x1="4.8" y1="17" x2="9" y2="15.5"/>
    <line x1="4" y1="22" x2="8.3" y2="21"/>
    <line x1="4" y1="27" x2="8.3" y2="27.5"/>
    <line x1="4.8" y1="32" x2="9" y2="32.8"/>
    <line x1="6.5" y1="36.5" x2="10.5" y2="38.2"/>

    <line x1="41.5" y1="12.5" x2="37.5" y2="10.5"/>
    <line x1="43.2" y1="17" x2="39" y2="15.5"/>
    <line x1="44" y1="22" x2="39.7" y2="21"/>
    <line x1="44" y1="27" x2="39.7" y2="27.5"/>
    <line x1="43.2" y1="32" x2="39" y2="32.8"/>
    <line x1="41.5" y1="36.5" x2="37.5" y2="38.2"/>
  </g>
</svg>
